{"title":"The Next Food Network Star S08E06 - Iron Chef Food Court x264 mp","uid":7378096,"size":437843730,"categoryP":"video","categoryS":"tv_shows","magnet":"?xt=urn:btih:d5da2266402322571e876c149cc5edcdda11b14c&amp;dn=The+Next+Food+Network+Star+S08E06+-+Iron+Chef+Food+Court+x264+mp&amp;tr=udp%3A%2F%2Ftracker.openbittorrent.com%3A80&amp;tr=udp%3A%2F%2Fopen.demonii.com%3A1337&amp;tr=udp%3A%2F%2Ftracker.coppersurfer.tk%3A6969&amp;tr=udp%3A%2F%2Fexodus.desync.com%3A6969","seeders":0,"leechers":1,"uploader":"KaLaNco69","files":-1,"time":1340421397,"description":"Ten finalists remain to compete for the title of Food Network Star. \n\nThis week, each finalist must elevate iconic food-court food while adapting to the limitations of a kiosk. \n\nThe challenge is taken to another level when they learn they'll be feeding Iron Chef Geoffrey Zakarian in addition to 150 hungry shoppers! \n\nTensions mount as Zakarian provides an Iron Chef-worthy secret ingredient that the finalists will have to incorporate in their dishes.\n\nThe.Next.Food.Network.Star.S08E06-Iron.Chef.Food.Court.mp4\n\nFormat                                   : MPEG-4\nFormat profile                           : Base Media\nFile size                                : 418 MiB\nDuration                                 : 42mn 6s\nOverall bit rate mode                    : Variable\nOverall bit rate                         : 1 386 Kbps\n\n\nVideo\nID                                       : 1\nFormat                                   : AVC\nFormat/Info                              : Advanced Video Codec\nFormat profile                           : &lt;a class=&quot;__cf_email__&quot; href=&quot;/cdn-cgi/l/email-protection&quot; data-cfemail=&quot;cb89aab8aea7a2a5ae8b87f8e5fb&quot;&gt;[email&amp;#160;protected]&lt;/a&gt;&lt;script cf-hash='f9e31' type=&quot;text/javascript&quot;&gt;\n/* &lt;![CDATA[ */!function(){try{var t=&quot;currentScript&quot;in document?document.currentScript:function(){for(var t=document.getElementsByTagName(&quot;script&quot;),e=t.length;e--;)if(t[e].getAttribute(&quot;cf-hash&quot;))return t[e]}();if(t&amp;&amp;t.previousSibling){var e,r,n,i,c=t.previousSibling,a=c.getAttribute(&quot;data-cfemail&quot;);if(a){for(e=&quot;&quot;,r=parseInt(a.substr(0,2),16),n=2;a.length-n;n+=2)i=parseInt(a.substr(n,2),16)^r,e+=String.fromCharCode(i);e=document.createTextNode(e),c.parentNode.replaceChild(e,c)}}}catch(u){}}();/* ]]&gt; */&lt;/script&gt;\nFormat settings, CABAC                   : No\nFormat settings, ReFrames                : 1 frame\nFormat settings, GOP                     : M=1, N=12\nCodec ID                                 : avc1\nCodec ID/Info                            : Advanced Video Coding\nDuration                                 : 42mn 6s\nBit rate mode                            : Variable\nBit rate                                 : 1 254 Kbps\nMaximum bit rate                         : 1 500 Kbps\nWidth                                    : 640 pixels\nHeight                                   : 360 pixels\nDisplay aspect ratio                     : 16:9\nFrame rate mode                          : Constant\nFrame rate                               : 29.970 fps\nOriginal frame rate                      : 24.000 fps\nColor space                              : YUV\nChroma subsampling                       : 4:2:0\nBit depth                                : 8 bits\nScan type                                : Progressive\nBits/(Pixel*Frame)                       : 0.182\nStream size                              : 378 MiB (90%)\n\n\nAudio\nID                                       : 2\nFormat                                   : AAC\nFormat/Info                              : Advanced Audio Codec\nFormat profile                           : LC\nCodec ID                                 : 40\nDuration                                 : 42mn 6s\nBit rate mode                            : Variable\nBit rate                                 : 128 Kbps\nChannel(s)                               : 2 channels\nChannel positions                        : Front: L R\nSampling rate                            : 44.1 KHz\nCompression mode                         : Lossy\nStream size                              : 38.5 MiB (9%)\n\nApologies for the tinny audio, source only had 64kbps audio ","torrent":{"xt":"urn:btih:d5da2266402322571e876c149cc5edcdda11b14c","amp;dn":"The+Next+Food+Network+Star+S08E06+-+Iron+Chef+Food+Court+x264+mp","amp;tr":["udp%3A%2F%2Ftracker.openbittorrent.com%3A80","udp%3A%2F%2Fopen.demonii.com%3A1337","udp%3A%2F%2Ftracker.coppersurfer.tk%3A6969","udp%3A%2F%2Fexodus.desync.com%3A6969"],"infoHash":"d5da2266402322571e876c149cc5edcdda11b14c","infoHashBuffer":{"type":"Buffer","data":[213,218,34,102,64,35,34,87,30,135,108,20,156,197,237,205,218,17,177,76]},"announce":[],"urlList":[]}}